<?xml version="1.0" encoding="UTF-8" standalone="no"?>
<svg
   id="mdi-car-wrench"
   viewBox="0 0 24 24"
   version="1.1"
   sodipodi:docname="icon-app.svg"
   inkscape:version="1.2.1 (9c6d41e410, 2022-07-14)"
   xmlns:inkscape="http://www.inkscape.org/namespaces/inkscape"
   xmlns:sodipodi="http://sodipodi.sourceforge.net/DTD/sodipodi-0.dtd"
   xmlns="http://www.w3.org/2000/svg"
   xmlns:svg="http://www.w3.org/2000/svg">
  <defs
     id="defs151" />
  <sodipodi:namedview
     id="namedview149"
     pagecolor="#ffffff"
     bordercolor="#000000"
     borderopacity="0.25"
     inkscape:showpageshadow="2"
     inkscape:pageopacity="0.0"
     inkscape:pagecheckerboard="0"
     inkscape:deskcolor="#d1d1d1"
     showgrid="false"
     inkscape:zoom="6.0693332"
     inkscape:cx="-20.101055"
     inkscape:cy="17.629614"
     inkscape:window-width="1920"
     inkscape:window-height="1027"
     inkscape:window-x="-8"
     inkscape:window-y="-8"
     inkscape:window-maximized="1"
     inkscape:current-layer="mdi-car-wrench" />
  <path
     d="m 22.87,21.19 -4.11,-4.11 c 0.41,-1.04 0.18,-2.26 -0.68,-3.11 -0.9,-0.91 -2.25,-1.09 -3.34,-0.59 l 1.94,1.94 -1.35,1.36 -1.99,-1.95 c -0.54,1.09 -0.29,2.44 0.59,3.35 0.86,0.86 2.07,1.08 3.12,0.68 l 4.11,4.1 c 0.18,0.19 0.45,0.19 0.63,0 l 1.04,-1.03 c 0.22,-0.18 0.22,-0.5 0.04,-0.64 z"
     id="path366"
     style="fill:#393939;fill-opacity:1" />
  <path
     style="fill:#009ef7;fill-opacity:1"
     d="M 6.5,4 C 5.8400007,4 5.2800779,4.4200006 5.0800781,5 L 3,11 v 8 c 0,0.549999 0.4500006,1 1,1 h 1 c 0.5499994,0 1,-0.450001 1,-1 v -1 h 5.419922 C 11.149922,17.390001 11,16.709999 11,16 c 0,-2.759997 2.240003,-5 5,-5 2.759997,0 5,2.240003 5,5 V 11 L 18.919922,5 C 18.719922,4.4200006 18.159999,4 17.5,4 Z"
     id="path364" />
  <path
     style="fill:#ffffff;fill-opacity:1"
     d="m 6.5,5.5 h 11 L 19,10 H 5 Z"
     id="path2431" />
  <path
     style="fill:#ffffff;fill-opacity:1"
     d="M 6.5,12 C 7.3299992,12 8,12.670001 8,13.5 8,14.329999 7.3299992,15 6.5,15 5.6700008,15 5,14.329999 5,13.5 5,12.670001 5.6700008,12 6.5,12 Z"
     id="path2433" />
</svg>
